# xmcd
#
# Track frame offsets:
#	150
#	11760
#	21066
#	34587
#	47718
#	57097
#	71023
#	85432
#	99354
#	110883
#	125467
#	138622
#	149618
#	161923
#	168997
#	179954
#	194134
#	208550
#
# Disc length: 2973
#
# Revision: 2
# Processed by: cddbd v1.5.1PL0 Copyright (c) Steve Scherf et al.
# Submitted via: CDex 1.51
# Normalized: r0:TDELIM( - ),TSWAP
#
DISCID=170b9b12
DTITLE=Various Artist - The Songs of Irving Berlin
DYEAR=1900
DGENRE=Jazz
TTITLE0=Fred Astaire - Let Yourself Go
TTITLE1=Benny Goodman - Alexander's Ragtime Band
TTITLE2=Harry Roy - Let's Face the Music and Dance
TTITLE3=Nat King Cole - Cuba
TTITLE4=Judy Garland - PUttin' on the Ritz
TTITLE5=Dick Haymes - They Say It's Wonderful
TTITLE6=Roy Fox - A Pretty Girl is Like A Melody
TTITLE7=Peggy Lee - How Deep Is the Oceam
TTITLE8=Al Johnson - Let Me Sing and I'm Happy
TTITLE9=Fred Astaire - Cheek to Cheek
TTITLE10=Louis Armstrong - I'm Putting All My Eggs in One Basket
TTITLE11=Artie Shaw - Because I Love You
TTITLE12=Benny Goodman - Always
TTITLE13=Judy Garland - I've Got My Love to Keep Me Warm
TTITLE14=Ambrose - Isn't it a Lovely Day?
TTITLE15=Ruth Etting - Shakin' the Blues Away
TTITLE16=Bing Crosby - When I Lost You
TTITLE17=Tommy Dorsey - When the Midnight Choo Choo Leaves for Alabam
EXTD=
EXTT0=
EXTT1=
EXTT2=
EXTT3=
EXTT4=
EXTT5=
EXTT6=
EXTT7=
EXTT8=
EXTT9=
EXTT10=
EXTT11=
EXTT12=
EXTT13=
EXTT14=
EXTT15=
EXTT16=
EXTT17=
PLAYORDER=
